<svg width="200" height="132" viewBox="0 0 200 132" fill="none" xmlns="http://www.w3.org/2000/svg">
<path d="M0.352635 68.6525L130.333 39.5617L130.943 42.756L0.352635 68.6525Z" fill="black"/>
<path d="M123.179 18.3803C123.434 14.3591 128.73 13.0691 130.644 16.5618L146.22 44.9917C147.493 47.3147 146.179 50.2646 143.59 50.8952L125.936 55.1955C123.348 55.826 120.932 53.7847 121.101 51.1104L123.179 18.3803Z" fill="url(#paint0_linear_18_24)"/>
<path d="M10.0812 113.141L140.061 84.0497L140.672 87.244L10.0812 113.141Z" fill="black"/>
<rect width="133.019" height="27.6069" rx="13.8034" transform="matrix(0.979559 -0.201156 0.182931 0.983126 52.6486 65.3242)" fill="black"/>
<path d="M149.491 105.296C149.239 110.676 141.888 112.048 139.888 107.088L125.599 71.6635C124.41 68.7141 126.252 65.3703 129.39 64.7849L145.481 61.7825C148.618 61.1972 151.444 63.6699 151.294 66.8692L149.491 105.296Z" fill="url(#paint1_linear_18_24)"/>
<path d="M44.5694 46.216C43.4889 42.6586 47.1687 39.5295 50.2556 41.3808L77.2505 57.5709C79.6199 58.992 79.867 62.4778 77.7273 64.2973L60.1816 79.2171C58.0419 81.0366 54.848 80.0565 54.0186 77.3258L44.5694 46.216Z" fill="black"/>
<path d="M185.646 45.0002C190.878 46.998 192.223 53.8102 188.18 57.8298C183.767 62.216 176.374 60.0224 175.179 53.9724C173.984 47.9223 179.936 42.8201 185.646 45.0002Z" fill="black"/>
<defs>
<linearGradient id="paint0_linear_18_24" x1="137.45" y1="49.8678" x2="127.284" y2="-33.4517" gradientUnits="userSpaceOnUse">
<stop/>
<stop offset="1" stop-color="#666666"/>
</linearGradient>
<linearGradient id="paint1_linear_18_24" x1="139.238" y1="57.1913" x2="131.043" y2="200.762" gradientUnits="userSpaceOnUse">
<stop/>
<stop offset="1" stop-color="#666666"/>
</linearGradient>
</defs>
</svg>
